<?xml version="1.0" encoding="UTF-8"?>
<svg width="60px" height="60px" viewBox="0 0 60 60" version="1.1" xmlns="http://www.w3.org/2000/svg" xmlns:xlink="http://www.w3.org/1999/xlink">
    <!-- Generator: Sketch 47.1 (45422) - http://www.bohemiancoding.com/sketch -->
    <title>067 - Rasberry Pi</title>
    <desc>Created with Sketch.</desc>
    <defs></defs>
    <g id="Page-1" stroke="none" stroke-width="1" fill="none" fill-rule="evenodd">
        <g id="067---Rasberry-Pi" fill-rule="nonzero">
            <rect id="Rectangle-path" fill="#4FBA6F" x="4" y="1" width="52" height="54" rx="2"></rect>
            <circle id="Oval" fill="#14A085" cx="10" cy="7" r="2"></circle>
            <circle id="Oval" fill="#14A085" cx="50" cy="7" r="2"></circle>
            <circle id="Oval" fill="#14A085" cx="10" cy="49" r="2"></circle>
            <circle id="Oval" fill="#14A085" cx="50" cy="49" r="2"></circle>
            <rect id="Rectangle-path" fill="#BDC3C7" x="45" y="16" width="14" height="13" rx="1"></rect>
            <path d="M43,40 L43,51 L33,51 L33,40 C33.0016474,39.4483991 33.4483991,39.0016474 34,39 L42,39 C42.5516009,39.0016474 42.9983526,39.4483991 43,40 L43,40 Z" id="Shape" fill="#E6E7E8"></path>
            <path d="M43,51 L43,57 C42.9967543,58.1032223 42.1032223,58.9967543 41,59 L35,59 C33.8967777,58.9967543 33.0032457,58.1032223 33,57 L33,51 L43,51 Z" id="Shape" fill="#5E5F62"></path>
            <rect id="Rectangle-path" fill="#E6E7E8" x="17" y="46" width="12" height="12" rx="1"></rect>
            <rect id="Rectangle-path" fill="#BDC3C7" x="23" y="21" width="14" height="14" rx="1"></rect>
            <path d="M16,6 C15.8693565,5.99839119 15.7402958,5.97118475 15.62012,5.91992 C15.498873,5.86936318 15.3872098,5.79835769 15.29,5.71 C15.2021236,5.61024542 15.1279061,5.49924542 15.0693,5.37992 C15.0214588,5.25906434 14.9979099,5.12996348 15,5 C15.0034639,4.73518836 15.1070782,4.48151195 15.29,4.29 C15.5260059,4.05560648 15.8632617,3.95417215 16.18941,4.01949 C16.2557393,4.02926029 16.3200485,4.04970834 16.37984,4.08004 C16.4413395,4.09972072 16.4988678,4.13013703 16.54976,4.16988 C16.6071364,4.20434111 16.6608302,4.24459136 16.71,4.29 C16.8925356,4.48176204 16.9960852,4.73528015 17,5 C16.9983912,5.13064347 16.9711848,5.25970417 16.91992,5.37988 C16.8691024,5.50099712 16.7980937,5.61260917 16.70992,5.70996 C16.6125692,5.79813372 16.5009571,5.86914235 16.37984,5.91996 C16.2596738,5.97120591 16.1306273,5.99839863 16,6 Z" id="Shape" fill="#2C2F38"></path>
            <path d="M16,10 C15.8693565,9.99839119 15.7402958,9.97118475 15.62012,9.91992 C15.498873,9.86936318 15.3872098,9.79835769 15.29,9.71 C15.2021236,9.61024542 15.1279061,9.49924542 15.0693,9.37992 C15.0214588,9.25906434 14.9979099,9.12996348 15,9 C15.0014332,8.73477988 15.1053422,8.48038192 15.29,8.29 C15.3871917,8.2016177 15.4988414,8.1305851 15.62008,8.08 C15.7987625,8.00041735 15.9979962,7.97922861 16.18942,8.01945 C16.2557493,8.02922029 16.3200585,8.04966834 16.37985,8.08 C16.4435714,8.10159283 16.5040312,8.13182103 16.55954,8.16984 C16.6120331,8.20687245 16.6622753,8.24699674 16.71,8.29 L16.83012,8.43941 C16.867777,8.49547772 16.8979772,8.55620768 16.91996,8.62007 C16.9489432,8.67654516 16.9690364,8.73715527 16.97953,8.79976 C16.9916602,8.86585714 16.9985051,8.93281564 17,9 C16.9983912,9.13064347 16.9711848,9.25970417 16.91992,9.37988 C16.8288893,9.63104228 16.6310823,9.82884932 16.37992,9.91988 C16.2597345,9.9711636 16.1306596,9.99838375 16,10 L16,10 Z" id="Shape" fill="#2C2F38"></path>
            <path d="M20,6 C19.8693565,5.99839119 19.7402958,5.97118475 19.62012,5.91992 C19.498873,5.86936318 19.3872098,5.79835769 19.29,5.71 C19.2018263,5.61264917 19.1308176,5.50103712 19.08,5.37992 C19.0287576,5.2597262 19.0015783,5.13065161 19,5 C19.0034639,4.73518836 19.1070782,4.48151195 19.29,4.29 C19.5260059,4.05560648 19.8632617,3.95417215 20.18941,4.01949 C20.2557393,4.02926029 20.3200485,4.04970834 20.37984,4.08004 C20.4435614,4.10163283 20.5040212,4.13186103 20.55953,4.16988 C20.6120254,4.2068992 20.6622709,4.24701012 20.71,4.29 C20.8925356,4.48176204 20.9960852,4.73528015 21,5 C20.9983912,5.13064347 20.9711848,5.25970417 20.91992,5.37988 C20.8691024,5.50099712 20.7980937,5.61260917 20.70992,5.70996 C20.6125692,5.79813372 20.5009571,5.86914235 20.37984,5.91996 C20.2596738,5.97120591 20.1306273,5.99839863 20,6 L20,6 Z" id="Shape" fill="#2C2F38"></path>
            <path d="M20,10 C19.8693565,9.99839119 19.7402958,9.97118475 19.62012,9.91992 C19.498873,9.86936318 19.3872098,9.79835769 19.29,9.71 C19.2018263,9.61264917 19.1308176,9.50103712 19.08,9.37992 C19.0287576,9.2597262 19.0015783,9.13065161 19,9 C19.0016644,8.93288245 19.0081915,8.86597381 19.01953,8.7998 C19.0308296,8.73726771 19.0512296,8.6767282 19.08008,8.62011 C19.101657,8.55607857 19.1318833,8.4952962 19.16992,8.43945 C19.2069427,8.38729248 19.2470404,8.33738737 19.29,8.29 C19.6909481,7.91987687 20.3089719,7.91987687 20.70992,8.29 C20.752892,8.33737334 20.7930031,8.38726508 20.83004,8.43941 C20.867697,8.49547772 20.8978972,8.55620768 20.91988,8.62007 C20.9488632,8.67654516 20.9689564,8.73715527 20.97945,8.79976 C20.991607,8.86585499 20.9984787,8.9328135 21,9 C20.9983912,9.13064347 20.9711848,9.25970417 20.91992,9.37988 C20.8288893,9.63104228 20.6310823,9.82884932 20.37992,9.91988 C20.2597345,9.9711636 20.1306596,9.99838375 20,10 L20,10 Z" id="Shape" fill="#2C2F38"></path>
            <path d="M24,6 C23.8693565,5.99839119 23.7402958,5.97118475 23.62012,5.91992 C23.498873,5.86936318 23.3872098,5.79835769 23.29,5.71 C23.1989148,5.61275331 23.1243624,5.50125242 23.0693,5.37992 C23.0214588,5.25906434 22.9979099,5.12996348 23,5 C23,4.44771525 23.4477153,4 24,4 C24.5522847,4 25,4.44771525 25,5 C24.9983912,5.13064347 24.9711848,5.25970417 24.91992,5.37988 C24.8691024,5.50099712 24.7980937,5.61260917 24.70992,5.70996 C24.5216363,5.89775855 24.2659212,6.00223175 24,6 Z" id="Shape" fill="#2C2F38"></path>
            <path d="M24,10 C23.8693565,9.99839119 23.7402958,9.97118475 23.62012,9.91992 C23.498873,9.86936318 23.3872098,9.79835769 23.29,9.71 C23.2018263,9.61264917 23.1308176,9.50103712 23.08,9.37992 C23.0287576,9.2597262 23.0015783,9.13065161 23,9 C23.0014332,8.73477988 23.1053422,8.48038192 23.29,8.29 C23.6909481,7.91987687 24.3089719,7.91987687 24.70992,8.29 C24.8942221,8.48062069 24.9980945,8.73485875 25,9 C24.9983912,9.13064347 24.9711848,9.25970417 24.91992,9.37988 C24.8288893,9.63104228 24.6310823,9.82884932 24.37992,9.91988 C24.2597345,9.9711636 24.1306596,9.99838375 24,10 L24,10 Z" id="Shape" fill="#2C2F38"></path>
            <path d="M28,6 C27.8693565,5.99839119 27.7402958,5.97118475 27.62012,5.91992 C27.498873,5.86936318 27.3872098,5.79835769 27.29,5.71 C27.2021236,5.61024542 27.1279061,5.49924542 27.0693,5.37992 C27.0214588,5.25906434 26.9979099,5.12996348 27,5 C27.0034639,4.73518836 27.1070782,4.48151195 27.29,4.29 C27.5260059,4.05560648 27.8632617,3.95417215 28.18941,4.01949 C28.2557393,4.02926029 28.3200485,4.04970834 28.37984,4.08004 C28.4435614,4.10163283 28.5040212,4.13186103 28.55953,4.16988 C28.6120254,4.2068992 28.6622709,4.24701012 28.71,4.29 C28.8925356,4.48176204 28.9960852,4.73528015 29,5 C28.9983912,5.13064347 28.9711848,5.25970417 28.91992,5.37988 C28.8691024,5.50099712 28.7980937,5.61260917 28.70992,5.70996 C28.5216363,5.89775855 28.2659212,6.00223175 28,6 L28,6 Z" id="Shape" fill="#2C2F38"></path>
            <path d="M28,10 C27.8693565,9.99839119 27.7402958,9.97118475 27.62012,9.91992 C27.498873,9.86936318 27.3872098,9.79835769 27.29,9.71 C27.2021236,9.61024542 27.1279061,9.49924542 27.0693,9.37992 C27.0214588,9.25906434 26.9979099,9.12996348 27,9 C27.0014332,8.73477988 27.1053422,8.48038192 27.29,8.29 C27.3871917,8.2016177 27.4988414,8.1305851 27.62008,8.08 C27.7987625,8.00041735 27.9979962,7.97922861 28.18942,8.01945 C28.2557493,8.02922029 28.3200585,8.04966834 28.37985,8.08 C28.4435714,8.10159283 28.5040312,8.13182103 28.55954,8.16984 C28.6120331,8.20687245 28.6622753,8.24699674 28.71,8.29 L28.83012,8.43941 C28.867777,8.49547772 28.8979772,8.55620768 28.91996,8.62007 C28.9489432,8.67654516 28.9690364,8.73715527 28.97953,8.79976 C28.9916602,8.86585714 28.9985051,8.93281564 29,9 C28.9983912,9.13064347 28.9711848,9.25970417 28.91992,9.37988 C28.8288893,9.63104228 28.6310823,9.82884932 28.37992,9.91988 C28.2597345,9.9711636 28.1306596,9.99838375 28,10 L28,10 Z" id="Shape" fill="#2C2F38"></path>
            <path d="M32,6 C31.733986,6.00263439 31.4781011,5.89811803 31.29,5.71 C31.2018263,5.61264917 31.1308176,5.50103712 31.08,5.37992 C31.0287576,5.2597262 31.0015783,5.13065161 31,5 C31.0014332,4.73477988 31.1053422,4.48038192 31.29,4.29 C31.5760905,4.00154005 32.0082668,3.91483814 32.3834815,4.07062905 C32.7586962,4.22641996 33.0023626,4.59373493 33,5 C32.9983912,5.13064347 32.9711848,5.25970417 32.91992,5.37988 C32.8691024,5.50099712 32.7980937,5.61260917 32.70992,5.70996 C32.5216363,5.89775855 32.2659212,6.00223175 32,6 Z" id="Shape" fill="#2C2F38"></path>
            <path d="M32,10 C31.8693565,9.99839119 31.7402958,9.97118475 31.62012,9.91992 C31.498873,9.86936318 31.3872098,9.79835769 31.29,9.71 C31.2018263,9.61264917 31.1308176,9.50103712 31.08,9.37992 C31.0287576,9.2597262 31.0015783,9.13065161 31,9 C31.0016644,8.93288245 31.0081915,8.86597381 31.01953,8.7998 C31.0308296,8.73726771 31.0512296,8.6767282 31.08008,8.62011 C31.101657,8.55607857 31.1318833,8.4952962 31.16992,8.43945 C31.2069427,8.38729248 31.2470404,8.33738737 31.29,8.29 C31.5294551,8.05396714 31.87066,7.95255715 32.20016,8.01949 C32.2626537,8.0309393 32.3231719,8.0513321 32.37985,8.08004 C32.4435714,8.10163283 32.5040312,8.13186103 32.55954,8.16988 C32.6107524,8.20455846 32.6579315,8.24484819 32.7002,8.29 C32.993921,8.57170762 33.0815479,9.00632843 32.91993,9.37984 C32.8691835,9.50331073 32.7945059,9.61551919 32.7002,9.71 C32.5115125,9.89118681 32.2615411,9.9947168 32,10 Z" id="Shape" fill="#2C2F38"></path>
            <path d="M36,6 C35.733986,6.00263439 35.4781011,5.89811803 35.29,5.71 C35.1989148,5.61275331 35.1243624,5.50125242 35.0693,5.37992 C35.0214588,5.25906434 34.9979099,5.12996348 35,5 C34.9976374,4.59373493 35.2413038,4.22641996 35.6165185,4.07062905 C35.9917332,3.91483814 36.4239095,4.00154005 36.71,4.29 C36.8942729,4.48063329 36.998116,4.73486986 37,5 C36.9983912,5.13064347 36.9711848,5.25970417 36.91992,5.37988 C36.8691024,5.50099712 36.7980937,5.61260917 36.70992,5.70996 C36.6125692,5.79813372 36.5009571,5.86914235 36.37984,5.91996 C36.2596738,5.97120591 36.1306273,5.99839863 36,6 L36,6 Z" id="Shape" fill="#2C2F38"></path>
            <path d="M36,10 C35.8693565,9.99839119 35.7402958,9.97118475 35.62012,9.91992 C35.498873,9.86936318 35.3872098,9.79835769 35.29,9.71 C35.2018263,9.61264917 35.1308176,9.50103712 35.08,9.37992 C35.0287576,9.2597262 35.0015783,9.13065161 35,9 C35.0014332,8.73477988 35.1053422,8.48038192 35.29,8.29 C35.6909481,7.91987687 36.3089719,7.91987687 36.70992,8.29 C36.8942221,8.48062069 36.9980945,8.73485875 37,9 C36.9983912,9.13064347 36.9711848,9.25970417 36.91992,9.37988 C36.8288893,9.63104228 36.6310823,9.82884932 36.37992,9.91988 C36.2597345,9.9711636 36.1306596,9.99838375 36,10 L36,10 Z" id="Shape" fill="#2C2F38"></path>
            <path d="M40,6 C39.733986,6.00263439 39.4781011,5.89811803 39.29,5.71 C39.2018263,5.61264917 39.1308176,5.50103712 39.08,5.37992 C39.0287576,5.2597262 39.0015783,5.13065161 39,5 C39,4.44771525 39.4477153,4 40,4 C40.5522847,4 41,4.44771525 41,5 C40.9983912,5.13064347 40.9711848,5.25970417 40.91992,5.37988 C40.8691024,5.50099712 40.7980937,5.61260917 40.70992,5.70996 C40.5216363,5.89775855 40.2659212,6.00223175 40,6 Z" id="Shape" fill="#2C2F38"></path>
            <path d="M40,10 C39.8693565,9.99839119 39.7402958,9.97118475 39.62012,9.91992 C39.498873,9.86936318 39.3872098,9.79835769 39.29,9.71 C39.2021236,9.61024542 39.1279061,9.49924542 39.0693,9.37992 C39.0214588,9.25906434 38.9979099,9.12996348 39,9 C39.0014332,8.73477988 39.1053422,8.48038192 39.29,8.29 C39.3373733,8.247028 39.3872651,8.20691692 39.43941,8.16988 C39.4952562,8.13184329 39.5560386,8.10161697 39.62007,8.08004 C39.6766882,8.05118955 39.7372277,8.0307896 39.79976,8.01949 C39.9279901,7.99018268 40.0611799,7.99018268 40.18941,8.01949 C40.2557393,8.02926029 40.3200485,8.04970834 40.37984,8.08004 C40.4435614,8.10163283 40.5040212,8.13186103 40.55953,8.16988 C40.6120254,8.2068992 40.6622709,8.24701012 40.71,8.29 L40.83012,8.43941 C40.867777,8.49547772 40.8979772,8.55620768 40.91996,8.62007 C40.9489432,8.67654516 40.9690364,8.73715527 40.97953,8.79976 C40.9916602,8.86585714 40.9985051,8.93281564 41,9 C40.9983912,9.13064347 40.9711848,9.25970417 40.91992,9.37988 C40.8288893,9.63104228 40.6310823,9.82884932 40.37992,9.91988 C40.2597345,9.9711636 40.1306596,9.99838375 40,10 L40,10 Z" id="Shape" fill="#2C2F38"></path>
            <path d="M44,6 C43.733986,6.00263439 43.4781011,5.89811803 43.29,5.71 C43.2021236,5.61024542 43.1279061,5.49924542 43.0693,5.37992 C43.0214588,5.25906434 42.9979099,5.12996348 43,5 C43.0034639,4.73518836 43.1070782,4.48151195 43.29,4.29 C43.3855837,4.19953413 43.4976355,4.12824573 43.62008,4.08 C43.9925008,3.92388083 44.4222476,4.00668214 44.71,4.29 C44.8925356,4.48176204 44.9960852,4.73528015 45,5 C45.0017417,5.1300156 44.9778501,5.25910046 44.92969,5.37988 C44.871796,5.49938869 44.797886,5.6104505 44.71,5.71 C44.6126492,5.79817372 44.5010371,5.86918235 44.37992,5.92 C44.2597262,5.9712424 44.1306516,5.99842172 44,6 Z" id="Shape" fill="#2C2F38"></path>
            <path d="M44,10 C43.8693565,9.99839119 43.7402958,9.97118475 43.62012,9.91992 C43.498873,9.86936318 43.3872098,9.79835769 43.29,9.71 C43.2018263,9.61264917 43.1308176,9.50103712 43.08,9.37992 C43.0287576,9.2597262 43.0015783,9.13065161 43,9 C43.0016644,8.93288245 43.0081915,8.86597381 43.01953,8.7998 C43.0308296,8.73726771 43.0512296,8.6767282 43.08008,8.62011 C43.101657,8.55607857 43.1318833,8.4952962 43.16992,8.43945 C43.2069427,8.38729248 43.2470404,8.33738737 43.29,8.29 C43.5294551,8.05396714 43.87066,7.95255715 44.20016,8.01949 C44.2626537,8.0309393 44.3231719,8.0513321 44.37985,8.08004 C44.4435714,8.10163283 44.5040312,8.13186103 44.55954,8.16988 C44.6107524,8.20455846 44.6579315,8.24484819 44.7002,8.29 C44.993921,8.57170762 45.0815479,9.00632843 44.91993,9.37984 C44.8691835,9.50331073 44.7945059,9.61551919 44.7002,9.71 C44.5115125,9.89118681 44.2615411,9.9947168 44,10 L44,10 Z" id="Shape" fill="#2C2F38"></path>
            <path d="M15,17 L12,17 C11.4477153,17 11,16.5522847 11,16 C11,15.4477153 11.4477153,15 12,15 L15,15 C15.5522847,15 16,15.4477153 16,16 C16,16.5522847 15.5522847,17 15,17 Z" id="Shape" fill="#BDC3C7"></path>
            <path d="M15,21 L12,21 C11.4477153,21 11,20.5522847 11,20 C11,19.4477153 11.4477153,19 12,19 L15,19 C15.5522847,19 16,19.4477153 16,20 C16,20.5522847 15.5522847,21 15,21 Z" id="Shape" fill="#BDC3C7"></path>
            <path d="M15,25 L12,25 C11.4477153,25 11,24.5522847 11,24 C11,23.4477153 11.4477153,23 12,23 L15,23 C15.5522847,23 16,23.4477153 16,24 C16,24.5522847 15.5522847,25 15,25 Z" id="Shape" fill="#BDC3C7"></path>
            <path d="M15,29 L12,29 C11.4477153,29 11,28.5522847 11,28 C11,27.4477153 11.4477153,27 12,27 L15,27 C15.5522847,27 16,27.4477153 16,28 C16,28.5522847 15.5522847,29 15,29 Z" id="Shape" fill="#BDC3C7"></path>
            <path d="M15,33 L12,33 C11.4477153,33 11,32.5522847 11,32 C11,31.4477153 11.4477153,31 12,31 L15,31 C15.5522847,31 16,31.4477153 16,32 C16,32.5522847 15.5522847,33 15,33 Z" id="Shape" fill="#BDC3C7"></path>
            <path d="M15,37 L12,37 C11.4477153,37 11,36.5522847 11,36 C11,35.4477153 11.4477153,35 12,35 L15,35 C15.5522847,35 16,35.4477153 16,36 C16,36.5522847 15.5522847,37 15,37 Z" id="Shape" fill="#BDC3C7"></path>
            <path d="M15,41 L12,41 C11.4477153,41 11,40.5522847 11,40 C11,39.4477153 11.4477153,39 12,39 L15,39 C15.5522847,39 16,39.4477153 16,40 C16,40.5522847 15.5522847,41 15,41 Z" id="Shape" fill="#BDC3C7"></path>
            <path d="M38,52 C37.7347363,52.000154 37.4802929,51.8948466 37.2927232,51.7072768 C37.1051534,51.5197071 36.999846,51.2652637 37,51 L37,46 C37,45.4477153 37.4477153,45 38,45 C38.5522847,45 39,45.4477153 39,46 L39,51 C39.000154,51.2652637 38.8948466,51.5197071 38.7072768,51.7072768 C38.5197071,51.8948466 38.2652637,52.000154 38,52 Z" id="Shape" fill="#5E5F62"></path>
            <path d="M21,54 C20.7347363,54.000154 20.4802929,53.8948466 20.2927232,53.7072768 C20.1051534,53.5197071 19.999846,53.2652637 20,53 L20,51 C20,50.4477153 20.4477153,50 21,50 C21.5522847,50 22,50.4477153 22,51 L22,53 C22.000154,53.2652637 21.8948466,53.5197071 21.7072768,53.7072768 C21.5197071,53.8948466 21.2652637,54.000154 21,54 L21,54 Z" id="Shape" fill="#BDC3C7"></path>
            <path d="M25,54 C24.7347363,54.000154 24.4802929,53.8948466 24.2927232,53.7072768 C24.1051534,53.5197071 23.999846,53.2652637 24,53 L24,51 C24,50.4477153 24.4477153,50 25,50 C25.5522847,50 26,50.4477153 26,51 L26,53 C26.000154,53.2652637 25.8948466,53.5197071 25.7072768,53.7072768 C25.5197071,53.8948466 25.2652637,54.000154 25,54 L25,54 Z" id="Shape" fill="#BDC3C7"></path>
            <path d="M53,21 L49,21 C48.4477153,21 48,20.5522847 48,20 C48,19.4477153 48.4477153,19 49,19 L53,19 C53.5522847,19 54,19.4477153 54,20 C54,20.5522847 53.5522847,21 53,21 Z" id="Shape" fill="#BDC3C7"></path>
            <path d="M53,26 L49,26 C48.4477153,26 48,25.5522847 48,25 C48,24.4477153 48.4477153,24 49,24 L53,24 C53.5522847,24 54,24.4477153 54,25 C54,25.5522847 53.5522847,26 53,26 Z" id="Shape" fill="#BDC3C7"></path>
            <path d="M8,21 L8,35 L2,35 C1.44839907,34.9983526 1.0016474,34.5516009 1,34 L1,22 C1.0016474,21.4483991 1.44839907,21.0016474 2,21 L8,21 Z" id="Shape" fill="#5E5F62"></path>
            <rect id="Rectangle-path" fill="#5E5F62" x="8" y="15" width="4" height="26"></rect>
            <path d="M4,22 C3.73473633,22.000154 3.48029294,21.8948466 3.29272317,21.7072768 C3.1051534,21.5197071 2.99984601,21.2652637 3,21 L3,3 C3.00180771,1.34389511 4.34389511,0.00180771165 6,0 L54,0 C55.6561049,0.00180771165 56.9981923,1.34389511 57,3 L57,16 C57,16.5522847 56.5522847,17 56,17 C55.4477153,17 55,16.5522847 55,16 L55,3 C54.9996249,2.44787068 54.5521293,2.00037507 54,2 L6,2 C5.44787068,2.00037507 5.00037507,2.44787068 5,3 L5,21 C5.00015399,21.2652637 4.8948466,21.5197071 4.70727683,21.7072768 C4.51970706,21.8948466 4.26526367,22.000154 4,22 Z" id="Shape" fill="#000000"></path>
            <path d="M33,56 L29,56 C28.4477153,56 28,55.5522847 28,55 C28,54.4477153 28.4477153,54 29,54 L33,54 C33.5522847,54 34,54.4477153 34,55 C34,55.5522847 33.5522847,56 33,56 Z" id="Shape" fill="#000000"></path>
            <path d="M17,56 L6,56 C4.34389511,55.9981923 3.00180771,54.6561049 3,53 L3,35 C3.00000001,34.4477153 3.44771526,34 4,34 C4.55228474,34 4.99999999,34.4477153 5,35 L5,53 C5.00037507,53.5521293 5.44787068,53.9996249 6,54 L17,54 C17.5522847,54 18,54.4477153 18,55 C18,55.5522847 17.5522847,56 17,56 L17,56 Z" id="Shape" fill="#000000"></path>
            <path d="M54,56 L43,56 C42.4477153,56 42,55.5522847 42,55 C42,54.4477153 42.4477153,54 43,54 L54,54 C54.5521293,53.9996249 54.9996249,53.5521293 55,53 L55,29 C55,28.4477153 55.4477153,28 56,28 C56.5522847,28 57,28.4477153 57,29 L57,53 C56.9981923,54.6561049 55.6561049,55.9981923 54,56 Z" id="Shape" fill="#000000"></path>
            <path d="M10,10 C8.34314575,10 7,8.65685425 7,7 C7,5.34314575 8.34314575,4 10,4 C11.6568542,4 13,5.34314575 13,7 C12.9981923,8.65610489 11.6561049,9.99819229 10,10 L10,10 Z M10,6 C9.44771525,6 9,6.44771525 9,7 C9,7.55228475 9.44771525,8 10,8 C10.5522847,8 11,7.55228475 11,7 C10.9996249,6.44787068 10.5521293,6.00037507 10,6 Z" id="Shape" fill="#000000"></path>
            <path d="M50,10 C48.3431458,10 47,8.65685425 47,7 C47,5.34314575 48.3431458,4 50,4 C51.6568542,4 53,5.34314575 53,7 C52.9981923,8.65610489 51.6561049,9.99819229 50,10 L50,10 Z M50,6 C49.4477153,6 49,6.44771525 49,7 C49,7.55228475 49.4477153,8 50,8 C50.5522847,8 51,7.55228475 51,7 C50.9996249,6.44787068 50.5521293,6.00037507 50,6 L50,6 Z" id="Shape" fill="#000000"></path>
            <path d="M10,52 C8.34314575,52 7,50.6568542 7,49 C7,47.3431458 8.34314575,46 10,46 C11.6568542,46 13,47.3431458 13,49 C12.9981923,50.6561049 11.6561049,51.9981923 10,52 L10,52 Z M10,48 C9.44771525,48 9,48.4477153 9,49 C9,49.5522847 9.44771525,50 10,50 C10.5522847,50 11,49.5522847 11,49 C10.9996249,48.4478707 10.5521293,48.0003751 10,48 L10,48 Z" id="Shape" fill="#000000"></path>
            <path d="M50,52 C48.3431458,52 47,50.6568542 47,49 C47,47.3431458 48.3431458,46 50,46 C51.6568542,46 53,47.3431458 53,49 C52.9981923,50.6561049 51.6561049,51.9981923 50,52 L50,52 Z M50,48 C49.4477153,48 49,48.4477153 49,49 C49,49.5522847 49.4477153,50 50,50 C50.5522847,50 51,49.5522847 51,49 C50.9996249,48.4478707 50.5521293,48.0003751 50,48 L50,48 Z" id="Shape" fill="#000000"></path>
            <path d="M58,30 L46,30 C44.8960266,29.9985621 44.0014379,29.1039734 44,28 L44,17 C44.0014379,15.8960266 44.8960266,15.0014379 46,15 L58,15 C59.1039734,15.0014379 59.9985621,15.8960266 60,17 L60,28 C59.9985621,29.1039734 59.1039734,29.9985621 58,30 L58,30 Z M46,17 L46,28 L58.002,28 L58,17 L46,17 Z" id="Shape" fill="#000000"></path>
            <path d="M43,52 L33,52 C32.7347363,52.000154 32.4802929,51.8948466 32.2927232,51.7072768 C32.1051534,51.5197071 31.999846,51.2652637 32,51 L32,40 C32.0014379,38.8960266 32.8960266,38.0014379 34,38 L42,38 C43.1039734,38.0014379 43.9985621,38.8960266 44,40 L44,51 C44.000154,51.2652637 43.8948466,51.5197071 43.7072768,51.7072768 C43.5197071,51.8948466 43.2652637,52.000154 43,52 L43,52 Z M34,50 L42,50 L42,40 L34,40 L34,50 Z" id="Shape" fill="#000000"></path>
            <path d="M41,60 L35,60 C33.3438951,59.9981923 32.0018077,58.6561049 32,57 L32,51 C31.999846,50.7347363 32.1051534,50.4802929 32.2927232,50.2927232 C32.4802929,50.1051534 32.7347363,49.999846 33,50 L43,50 C43.2652637,49.999846 43.5197071,50.1051534 43.7072768,50.2927232 C43.8948466,50.4802929 44.000154,50.7347363 44,51 L44,57 C43.9981923,58.6561049 42.6561049,59.9981923 41,60 L41,60 Z M34,52 L34,57 C34.0003751,57.5521293 34.4478707,57.9996249 35,58 L41,58 C41.5521293,57.9996249 41.9996249,57.5521293 42,57 L42,52 L34,52 Z" id="Shape" fill="#000000"></path>
            <path d="M28,59 L18,59 C16.8960266,58.9985621 16.0014379,58.1039734 16,57 L16,47 C16.0014379,45.8960266 16.8960266,45.0014379 18,45 L28,45 C29.1039734,45.0014379 29.9985621,45.8960266 30,47 L30,57 C29.9985621,58.1039734 29.1039734,58.9985621 28,59 Z M18,47 L18,57 L28.002,57 L28,47 L18,47 Z" id="Shape" fill="#000000"></path>
            <path d="M36,36 L24,36 C22.8960266,35.9985621 22.0014379,35.1039734 22,34 L22,22 C22.0014379,20.8960266 22.8960266,20.0014379 24,20 L36,20 C37.1039734,20.0014379 37.9985621,20.8960266 38,22 L38,34 C37.9985621,35.1039734 37.1039734,35.9985621 36,36 L36,36 Z M24,22 L24,34 L36.002,34 L36,22 L24,22 Z" id="Shape" fill="#000000"></path>
            <path d="M16,6 C15.8693565,5.99839119 15.7402958,5.97118475 15.62012,5.91992 C15.498873,5.86936318 15.3872098,5.79835769 15.29,5.71 C15.2021236,5.61024542 15.1279061,5.49924542 15.0693,5.37992 C15.0214588,5.25906434 14.9979099,5.12996348 15,5 C15.0034639,4.73518836 15.1070782,4.48151195 15.29,4.29 C15.5260059,4.05560648 15.8632617,3.95417215 16.18941,4.01949 C16.2557393,4.02926029 16.3200485,4.04970834 16.37984,4.08004 C16.4413395,4.09972072 16.4988678,4.13013703 16.54976,4.16988 C16.6071364,4.20434111 16.6608302,4.24459136 16.71,4.29 C16.8925356,4.48176204 16.9960852,4.73528015 17,5 C16.9983912,5.13064347 16.9711848,5.25970417 16.91992,5.37988 C16.8691024,5.50099712 16.7980937,5.61260917 16.70992,5.70996 C16.6125692,5.79813372 16.5009571,5.86914235 16.37984,5.91996 C16.2596738,5.97120591 16.1306273,5.99839863 16,6 Z" id="Shape" fill="#000000"></path>
            <path d="M16,10 C15.8693565,9.99839119 15.7402958,9.97118475 15.62012,9.91992 C15.498873,9.86936318 15.3872098,9.79835769 15.29,9.71 C15.2021236,9.61024542 15.1279061,9.49924542 15.0693,9.37992 C15.0214588,9.25906434 14.9979099,9.12996348 15,9 C15.0014332,8.73477988 15.1053422,8.48038192 15.29,8.29 C15.3871917,8.2016177 15.4988414,8.1305851 15.62008,8.08 C15.7987625,8.00041735 15.9979962,7.97922861 16.18942,8.01945 C16.2557493,8.02922029 16.3200585,8.04966834 16.37985,8.08 C16.4435714,8.10159283 16.5040312,8.13182103 16.55954,8.16984 C16.6120331,8.20687245 16.6622753,8.24699674 16.71,8.29 L16.83012,8.43941 C16.867777,8.49547772 16.8979772,8.55620768 16.91996,8.62007 C16.9489432,8.67654516 16.9690364,8.73715527 16.97953,8.79976 C16.9916602,8.86585714 16.9985051,8.93281564 17,9 C16.9983912,9.13064347 16.9711848,9.25970417 16.91992,9.37988 C16.8288893,9.63104228 16.6310823,9.82884932 16.37992,9.91988 C16.2597345,9.9711636 16.1306596,9.99838375 16,10 L16,10 Z" id="Shape" fill="#000000"></path>
            <path d="M20,6 C19.8693565,5.99839119 19.7402958,5.97118475 19.62012,5.91992 C19.498873,5.86936318 19.3872098,5.79835769 19.29,5.71 C19.2018263,5.61264917 19.1308176,5.50103712 19.08,5.37992 C19.0287576,5.2597262 19.0015783,5.13065161 19,5 C19.0034639,4.73518836 19.1070782,4.48151195 19.29,4.29 C19.5260059,4.05560648 19.8632617,3.95417215 20.18941,4.01949 C20.2557393,4.02926029 20.3200485,4.04970834 20.37984,4.08004 C20.4435614,4.10163283 20.5040212,4.13186103 20.55953,4.16988 C20.6120254,4.2068992 20.6622709,4.24701012 20.71,4.29 C20.8925356,4.48176204 20.9960852,4.73528015 21,5 C20.9983912,5.13064347 20.9711848,5.25970417 20.91992,5.37988 C20.8691024,5.50099712 20.7980937,5.61260917 20.70992,5.70996 C20.6125692,5.79813372 20.5009571,5.86914235 20.37984,5.91996 C20.2596738,5.97120591 20.1306273,5.99839863 20,6 L20,6 Z" id="Shape" fill="#000000"></path>
            <path d="M20,10 C19.8693565,9.99839119 19.7402958,9.97118475 19.62012,9.91992 C19.498873,9.86936318 19.3872098,9.79835769 19.29,9.71 C19.2018263,9.61264917 19.1308176,9.50103712 19.08,9.37992 C19.0287576,9.2597262 19.0015783,9.13065161 19,9 C19.0016644,8.93288245 19.0081915,8.86597381 19.01953,8.7998 C19.0308296,8.73726771 19.0512296,8.6767282 19.08008,8.62011 C19.101657,8.55607857 19.1318833,8.4952962 19.16992,8.43945 C19.2069427,8.38729248 19.2470404,8.33738737 19.29,8.29 C19.6909481,7.91987687 20.3089719,7.91987687 20.70992,8.29 C20.752892,8.33737334 20.7930031,8.38726508 20.83004,8.43941 C20.867697,8.49547772 20.8978972,8.55620768 20.91988,8.62007 C20.9488632,8.67654516 20.9689564,8.73715527 20.97945,8.79976 C20.991607,8.86585499 20.9984787,8.9328135 21,9 C20.9983912,9.13064347 20.9711848,9.25970417 20.91992,9.37988 C20.8288893,9.63104228 20.6310823,9.82884932 20.37992,9.91988 C20.2597345,9.9711636 20.1306596,9.99838375 20,10 L20,10 Z" id="Shape" fill="#000000"></path>
            <path d="M24,6 C23.8693565,5.99839119 23.7402958,5.97118475 23.62012,5.91992 C23.498873,5.86936318 23.3872098,5.79835769 23.29,5.71 C23.1989148,5.61275331 23.1243624,5.50125242 23.0693,5.37992 C23.0214588,5.25906434 22.9979099,5.12996348 23,5 C23,4.44771525 23.4477153,4 24,4 C24.5522847,4 25,4.44771525 25,5 C24.9983912,5.13064347 24.9711848,5.25970417 24.91992,5.37988 C24.8691024,5.50099712 24.7980937,5.61260917 24.70992,5.70996 C24.5216363,5.89775855 24.2659212,6.00223175 24,6 Z" id="Shape" fill="#000000"></path>
            <path d="M24,10 C23.8693565,9.99839119 23.7402958,9.97118475 23.62012,9.91992 C23.498873,9.86936318 23.3872098,9.79835769 23.29,9.71 C23.2018263,9.61264917 23.1308176,9.50103712 23.08,9.37992 C23.0287576,9.2597262 23.0015783,9.13065161 23,9 C23.0014332,8.73477988 23.1053422,8.48038192 23.29,8.29 C23.6909481,7.91987687 24.3089719,7.91987687 24.70992,8.29 C24.8942221,8.48062069 24.9980945,8.73485875 25,9 C24.9983912,9.13064347 24.9711848,9.25970417 24.91992,9.37988 C24.8288893,9.63104228 24.6310823,9.82884932 24.37992,9.91988 C24.2597345,9.9711636 24.1306596,9.99838375 24,10 L24,10 Z" id="Shape" fill="#000000"></path>
            <path d="M28,6 C27.8693565,5.99839119 27.7402958,5.97118475 27.62012,5.91992 C27.498873,5.86936318 27.3872098,5.79835769 27.29,5.71 C27.2021236,5.61024542 27.1279061,5.49924542 27.0693,5.37992 C27.0214588,5.25906434 26.9979099,5.12996348 27,5 C27.0034639,4.73518836 27.1070782,4.48151195 27.29,4.29 C27.5260059,4.05560648 27.8632617,3.95417215 28.18941,4.01949 C28.2557393,4.02926029 28.3200485,4.04970834 28.37984,4.08004 C28.4435614,4.10163283 28.5040212,4.13186103 28.55953,4.16988 C28.6120254,4.2068992 28.6622709,4.24701012 28.71,4.29 C28.8925356,4.48176204 28.9960852,4.73528015 29,5 C28.9983912,5.13064347 28.9711848,5.25970417 28.91992,5.37988 C28.8691024,5.50099712 28.7980937,5.61260917 28.70992,5.70996 C28.5216363,5.89775855 28.2659212,6.00223175 28,6 L28,6 Z" id="Shape" fill="#000000"></path>
            <path d="M28,10 C27.8693565,9.99839119 27.7402958,9.97118475 27.62012,9.91992 C27.498873,9.86936318 27.3872098,9.79835769 27.29,9.71 C27.2021236,9.61024542 27.1279061,9.49924542 27.0693,9.37992 C27.0214588,9.25906434 26.9979099,9.12996348 27,9 C27.0014332,8.73477988 27.1053422,8.48038192 27.29,8.29 C27.3871917,8.2016177 27.4988414,8.1305851 27.62008,8.08 C27.7987625,8.00041735 27.9979962,7.97922861 28.18942,8.01945 C28.2557493,8.02922029 28.3200585,8.04966834 28.37985,8.08 C28.4435714,8.10159283 28.5040312,8.13182103 28.55954,8.16984 C28.6120331,8.20687245 28.6622753,8.24699674 28.71,8.29 L28.83012,8.43941 C28.867777,8.49547772 28.8979772,8.55620768 28.91996,8.62007 C28.9489432,8.67654516 28.9690364,8.73715527 28.97953,8.79976 C28.9916602,8.86585714 28.9985051,8.93281564 29,9 C28.9983912,9.13064347 28.9711848,9.25970417 28.91992,9.37988 C28.8288893,9.63104228 28.6310823,9.82884932 28.37992,9.91988 C28.2597345,9.9711636 28.1306596,9.99838375 28,10 L28,10 Z" id="Shape" fill="#000000"></path>
            <path d="M32,6 C31.733986,6.00263439 31.4781011,5.89811803 31.29,5.71 C31.2018263,5.61264917 31.1308176,5.50103712 31.08,5.37992 C31.0287576,5.2597262 31.0015783,5.13065161 31,5 C31.0014332,4.73477988 31.1053422,4.48038192 31.29,4.29 C31.5760905,4.00154005 32.0082668,3.91483814 32.3834815,4.07062905 C32.7586962,4.22641996 33.0023626,4.59373493 33,5 C32.9983912,5.13064347 32.9711848,5.25970417 32.91992,5.37988 C32.8691024,5.50099712 32.7980937,5.61260917 32.70992,5.70996 C32.5216363,5.89775855 32.2659212,6.00223175 32,6 Z" id="Shape" fill="#000000"></path>
            <path d="M32,10 C31.8693565,9.99839119 31.7402958,9.97118475 31.62012,9.91992 C31.498873,9.86936318 31.3872098,9.79835769 31.29,9.71 C31.2018263,9.61264917 31.1308176,9.50103712 31.08,9.37992 C31.0287576,9.2597262 31.0015783,9.13065161 31,9 C31.0016644,8.93288245 31.0081915,8.86597381 31.01953,8.7998 C31.0308296,8.73726771 31.0512296,8.6767282 31.08008,8.62011 C31.101657,8.55607857 31.1318833,8.4952962 31.16992,8.43945 C31.2069427,8.38729248 31.2470404,8.33738737 31.29,8.29 C31.5294551,8.05396714 31.87066,7.95255715 32.20016,8.01949 C32.2626537,8.0309393 32.3231719,8.0513321 32.37985,8.08004 C32.4435714,8.10163283 32.5040312,8.13186103 32.55954,8.16988 C32.6107524,8.20455846 32.6579315,8.24484819 32.7002,8.29 C32.993921,8.57170762 33.0815479,9.00632843 32.91993,9.37984 C32.8691835,9.50331073 32.7945059,9.61551919 32.7002,9.71 C32.5115125,9.89118681 32.2615411,9.9947168 32,10 Z" id="Shape" fill="#000000"></path>
            <path d="M36,6 C35.733986,6.00263439 35.4781011,5.89811803 35.29,5.71 C35.1989148,5.61275331 35.1243624,5.50125242 35.0693,5.37992 C35.0214588,5.25906434 34.9979099,5.12996348 35,5 C34.9976374,4.59373493 35.2413038,4.22641996 35.6165185,4.07062905 C35.9917332,3.91483814 36.4239095,4.00154005 36.71,4.29 C36.8942729,4.48063329 36.998116,4.73486986 37,5 C36.9983912,5.13064347 36.9711848,5.25970417 36.91992,5.37988 C36.8691024,5.50099712 36.7980937,5.61260917 36.70992,5.70996 C36.6125692,5.79813372 36.5009571,5.86914235 36.37984,5.91996 C36.2596738,5.97120591 36.1306273,5.99839863 36,6 L36,6 Z" id="Shape" fill="#000000"></path>
            <path d="M36,10 C35.8693565,9.99839119 35.7402958,9.97118475 35.62012,9.91992 C35.498873,9.86936318 35.3872098,9.79835769 35.29,9.71 C35.2018263,9.61264917 35.1308176,9.50103712 35.08,9.37992 C35.0287576,9.2597262 35.0015783,9.13065161 35,9 C35.0014332,8.73477988 35.1053422,8.48038192 35.29,8.29 C35.6909481,7.91987687 36.3089719,7.91987687 36.70992,8.29 C36.8942221,8.48062069 36.9980945,8.73485875 37,9 C36.9983912,9.13064347 36.9711848,9.25970417 36.91992,9.37988 C36.8288893,9.63104228 36.6310823,9.82884932 36.37992,9.91988 C36.2597345,9.9711636 36.1306596,9.99838375 36,10 L36,10 Z" id="Shape" fill="#000000"></path>
            <path d="M40,6 C39.733986,6.00263439 39.4781011,5.89811803 39.29,5.71 C39.2018263,5.61264917 39.1308176,5.50103712 39.08,5.37992 C39.0287576,5.2597262 39.0015783,5.13065161 39,5 C39,4.44771525 39.4477153,4 40,4 C40.5522847,4 41,4.44771525 41,5 C40.9983912,5.13064347 40.9711848,5.25970417 40.91992,5.37988 C40.8691024,5.50099712 40.7980937,5.61260917 40.70992,5.70996 C40.5216363,5.89775855 40.2659212,6.00223175 40,6 Z" id="Shape" fill="#000000"></path>
            <path d="M40,10 C39.8693565,9.99839119 39.7402958,9.97118475 39.62012,9.91992 C39.498873,9.86936318 39.3872098,9.79835769 39.29,9.71 C39.2021236,9.61024542 39.1279061,9.49924542 39.0693,9.37992 C39.0214588,9.25906434 38.9979099,9.12996348 39,9 C39.0014332,8.73477988 39.1053422,8.48038192 39.29,8.29 C39.3373733,8.247028 39.3872651,8.20691692 39.43941,8.16988 C39.4952562,8.13184329 39.5560386,8.10161697 39.62007,8.08004 C39.6766882,8.05118955 39.7372277,8.0307896 39.79976,8.01949 C39.9279901,7.99018268 40.0611799,7.99018268 40.18941,8.01949 C40.2557393,8.02926029 40.3200485,8.04970834 40.37984,8.08004 C40.4435614,8.10163283 40.5040212,8.13186103 40.55953,8.16988 C40.6120254,8.2068992 40.6622709,8.24701012 40.71,8.29 L40.83012,8.43941 C40.867777,8.49547772 40.8979772,8.55620768 40.91996,8.62007 C40.9489432,8.67654516 40.9690364,8.73715527 40.97953,8.79976 C40.9916602,8.86585714 40.9985051,8.93281564 41,9 C40.9983912,9.13064347 40.9711848,9.25970417 40.91992,9.37988 C40.8288893,9.63104228 40.6310823,9.82884932 40.37992,9.91988 C40.2597345,9.9711636 40.1306596,9.99838375 40,10 L40,10 Z" id="Shape" fill="#000000"></path>
            <path d="M44,6 C43.733986,6.00263439 43.4781011,5.89811803 43.29,5.71 C43.2021236,5.61024542 43.1279061,5.49924542 43.0693,5.37992 C43.0214588,5.25906434 42.9979099,5.12996348 43,5 C43.0034639,4.73518836 43.1070782,4.48151195 43.29,4.29 C43.3855837,4.19953413 43.4976355,4.12824573 43.62008,4.08 C43.9925008,3.92388083 44.4222476,4.00668214 44.71,4.29 C44.8925356,4.48176204 44.9960852,4.73528015 45,5 C45.0017417,5.1300156 44.9778501,5.25910046 44.92969,5.37988 C44.871796,5.49938869 44.797886,5.6104505 44.71,5.71 C44.6126492,5.79817372 44.5010371,5.86918235 44.37992,5.92 C44.2597262,5.9712424 44.1306516,5.99842172 44,6 Z" id="Shape" fill="#000000"></path>
            <path d="M44,10 C43.8693565,9.99839119 43.7402958,9.97118475 43.62012,9.91992 C43.498873,9.86936318 43.3872098,9.79835769 43.29,9.71 C43.2018263,9.61264917 43.1308176,9.50103712 43.08,9.37992 C43.0287576,9.2597262 43.0015783,9.13065161 43,9 C43.0016644,8.93288245 43.0081915,8.86597381 43.01953,8.7998 C43.0308296,8.73726771 43.0512296,8.6767282 43.08008,8.62011 C43.101657,8.55607857 43.1318833,8.4952962 43.16992,8.43945 C43.2069427,8.38729248 43.2470404,8.33738737 43.29,8.29 C43.5294551,8.05396714 43.87066,7.95255715 44.20016,8.01949 C44.2626537,8.0309393 44.3231719,8.0513321 44.37985,8.08004 C44.4435714,8.10163283 44.5040312,8.13186103 44.55954,8.16988 C44.6107524,8.20455846 44.6579315,8.24484819 44.7002,8.29 C44.993921,8.57170762 45.0815479,9.00632843 44.91993,9.37984 C44.8691835,9.50331073 44.7945059,9.61551919 44.7002,9.71 C44.5115125,9.89118681 44.2615411,9.9947168 44,10 L44,10 Z" id="Shape" fill="#000000"></path>
            <path d="M8,36 L2,36 C0.896026635,35.9985621 0.00143787244,35.1039734 0,34 L0,22 C0.00143787244,20.8960266 0.896026635,20.0014379 2,20 L8,20 C8.26526367,19.999846 8.51970706,20.1051534 8.70727683,20.2927232 C8.8948466,20.4802929 9.00015399,20.7347363 9,21 L9,35 C9.00015399,35.2652637 8.8948466,35.5197071 8.70727683,35.7072768 C8.51970706,35.8948466 8.26526367,36.000154 8,36 L8,36 Z M2,22 L2,34 L7,34 L7,22 L2,22 Z" id="Shape" fill="#000000"></path>
            <path d="M12,41 L8,41 C7.73473633,41.000154 7.48029294,40.8948466 7.29272317,40.7072768 C7.1051534,40.5197071 6.99984601,40.2652637 7,40 L7,16 C6.99984601,15.7347363 7.1051534,15.4802929 7.29272317,15.2927232 C7.48029294,15.1051534 7.73473633,14.999846 8,15 L12,15 C12.2652637,14.999846 12.5197071,15.1051534 12.7072768,15.2927232 C12.8948466,15.4802929 13.000154,15.7347363 13,16 L13,40 C13.000154,40.2652637 12.8948466,40.5197071 12.7072768,40.7072768 C12.5197071,40.8948466 12.2652637,41.000154 12,41 Z M9,39 L11,39 L11,17 L9,17 L9,39 Z" id="Shape" fill="#000000"></path>
            <path d="M15,17 L12,17 C11.4477153,17 11,16.5522847 11,16 C11,15.4477153 11.4477153,15 12,15 L15,15 C15.5522847,15 16,15.4477153 16,16 C16,16.5522847 15.5522847,17 15,17 Z" id="Shape" fill="#000000"></path>
            <path d="M15,21 L12,21 C11.4477153,21 11,20.5522847 11,20 C11,19.4477153 11.4477153,19 12,19 L15,19 C15.5522847,19 16,19.4477153 16,20 C16,20.5522847 15.5522847,21 15,21 Z" id="Shape" fill="#000000"></path>
            <path d="M15,25 L12,25 C11.4477153,25 11,24.5522847 11,24 C11,23.4477153 11.4477153,23 12,23 L15,23 C15.5522847,23 16,23.4477153 16,24 C16,24.5522847 15.5522847,25 15,25 Z" id="Shape" fill="#000000"></path>
            <path d="M15,29 L12,29 C11.4477153,29 11,28.5522847 11,28 C11,27.4477153 11.4477153,27 12,27 L15,27 C15.5522847,27 16,27.4477153 16,28 C16,28.5522847 15.5522847,29 15,29 Z" id="Shape" fill="#000000"></path>
            <path d="M15,33 L12,33 C11.4477153,33 11,32.5522847 11,32 C11,31.4477153 11.4477153,31 12,31 L15,31 C15.5522847,31 16,31.4477153 16,32 C16,32.5522847 15.5522847,33 15,33 Z" id="Shape" fill="#000000"></path>
            <path d="M15,37 L12,37 C11.4477153,37 11,36.5522847 11,36 C11,35.4477153 11.4477153,35 12,35 L15,35 C15.5522847,35 16,35.4477153 16,36 C16,36.5522847 15.5522847,37 15,37 Z" id="Shape" fill="#000000"></path>
            <path d="M15,41 L12,41 C11.4477153,41 11,40.5522847 11,40 C11,39.4477153 11.4477153,39 12,39 L15,39 C15.5522847,39 16,39.4477153 16,40 C16,40.5522847 15.5522847,41 15,41 Z" id="Shape" fill="#000000"></path>
            <path d="M38,52 C37.7347363,52.000154 37.4802929,51.8948466 37.2927232,51.7072768 C37.1051534,51.5197071 36.999846,51.2652637 37,51 L37,46 C37,45.4477153 37.4477153,45 38,45 C38.5522847,45 39,45.4477153 39,46 L39,51 C39.000154,51.2652637 38.8948466,51.5197071 38.7072768,51.7072768 C38.5197071,51.8948466 38.2652637,52.000154 38,52 Z" id="Shape" fill="#000000"></path>
            <path d="M21,54 C20.7347363,54.000154 20.4802929,53.8948466 20.2927232,53.7072768 C20.1051534,53.5197071 19.999846,53.2652637 20,53 L20,51 C20,50.4477153 20.4477153,50 21,50 C21.5522847,50 22,50.4477153 22,51 L22,53 C22.000154,53.2652637 21.8948466,53.5197071 21.7072768,53.7072768 C21.5197071,53.8948466 21.2652637,54.000154 21,54 L21,54 Z" id="Shape" fill="#000000"></path>
            <path d="M25,54 C24.7347363,54.000154 24.4802929,53.8948466 24.2927232,53.7072768 C24.1051534,53.5197071 23.999846,53.2652637 24,53 L24,51 C24,50.4477153 24.4477153,50 25,50 C25.5522847,50 26,50.4477153 26,51 L26,53 C26.000154,53.2652637 25.8948466,53.5197071 25.7072768,53.7072768 C25.5197071,53.8948466 25.2652637,54.000154 25,54 L25,54 Z" id="Shape" fill="#000000"></path>
            <path d="M53,21 L49,21 C48.4477153,21 48,20.5522847 48,20 C48,19.4477153 48.4477153,19 49,19 L53,19 C53.5522847,19 54,19.4477153 54,20 C54,20.5522847 53.5522847,21 53,21 Z" id="Shape" fill="#000000"></path>
            <path d="M53,26 L49,26 C48.4477153,26 48,25.5522847 48,25 C48,24.4477153 48.4477153,24 49,24 L53,24 C53.5522847,24 54,24.4477153 54,25 C54,25.5522847 53.5522847,26 53,26 Z" id="Shape" fill="#000000"></path>
        </g>
    </g>
</svg>